<svg width="37" height="37" viewBox="0 0 37 37" fill="none" xmlns="http://www.w3.org/2000/svg">
<path d="M18.5 36.9C8.3 36.9 0 28.6 0 18.5C0 8.4 8.3 0 18.5 0C28.7 0 36.9 8.3 36.9 18.4C36.9 21.7 34.2 24.3 31 24.4C29.9 24.4 28.8 24.1 27.9 23.5H27.8V23.6C25 28.7 18.6 30.5 13.5 27.7C8.4 24.9 6.6 18.5 9.4 13.4C12.2 8.3 18.6 6.5 23.7 9.3C27.1 11.2 29.1 14.7 29.1 18.5C29.1 19.6 30 20.4 31 20.4C32 20.4 32.9 19.5 32.9 18.5C32.9 10.6 26.4 4.1 18.5 4.1C10.6 4.1 4 10.5 4 18.5C4 26.5 10.5 32.9 18.4 32.9C22.6 32.9 26.6 31 29.4 27.8L32.5 30.4C29 34.5 23.9 36.9 18.5 36.9ZM18.5 12C14.9 12 12 14.9 12 18.5C12 22.1 14.9 25 18.5 25C22.1 25 25 22.1 25 18.5C25 14.9 22.1 12 18.5 12Z" fill="#F06B66"/>
</svg>
