<svg width="184" height="45" viewBox="0 0 184 45" fill="none" xmlns="http://www.w3.org/2000/svg">
<path d="M46.6 9.59999H50.4V11.8C50.8 11.3 51.2 10.8 51.7 10.4C52.1 10.1 52.6 9.79999 53.1 9.59999C53.7 9.39999 54.3 9.29999 54.9 9.29999C56.3 9.29999 57.6 9.59999 58.7 10.3C59.8 11 60.8 11.9 61.5 13C62.2 11.8 63.2 10.9 64.3 10.3C65.4 9.69999 66.7 9.29999 68 9.29999C69.6 9.29999 71 9.69999 72.3 10.5C73.6 11.3 74.6 12.5 75.3 13.8C76 15.2 76.4 16.8 76.4 18.4V28.8H72.6V18.5C72.6 17.6 72.4 16.7 72.1 15.9C71.8 15.1 71.2 14.5 70.5 14C69.8 13.5 69 13.3 68.1 13.3C67.3 13.3 66.4 13.5 65.7 14C65 14.5 64.4 15.1 64.1 15.9C63.7 16.7 63.5 17.6 63.5 18.5V28.9H59.7V18.5C59.7 17.6 59.5 16.7 59.1 15.9C58.7 15.1 58.2 14.5 57.4 14C56.7 13.5 55.9 13.3 55 13.3C54.2 13.3 53.4 13.5 52.7 14C52 14.5 51.5 15.2 51.1 16C50.7 16.8 50.5 17.8 50.5 18.7V28.9H46.7V9.59999H46.6Z" fill="#051D39"/>
<path d="M99 9.6V28.8H95.2V25.9C94.6 26.9 93.7 27.8 92.6 28.4C91.6 29 90.4 29.3 89 29.3C87.2 29.3 85.5 28.8 83.9 27.9C82.4 27 81.1 25.7 80.2 24.2C78.4 21.1 78.4 17.2 80.2 14.1C81.1 12.6 82.4 11.3 83.9 10.4C85.4 9.5 87.2 9 89 9C90.3 9 91.5 9.3 92.6 9.9C93.6 10.5 94.5 11.4 95.2 12.4V9.6H99ZM89.1 25.6C90.2 25.6 91.2 25.3 92.1 24.7C93 24.1 93.7 23.3 94.1 22.4C94.6 21.4 94.8 20.3 94.8 19.2C94.8 18.1 94.6 17 94.1 16C93.6 15.1 92.9 14.3 92.1 13.7C91.2 13.1 90.2 12.8 89.1 12.8C88 12.8 86.9 13.1 86 13.7C84.1 14.9 82.9 17 82.9 19.2C82.9 20.3 83.2 21.4 83.7 22.4C84.2 23.4 85 24.2 86 24.7C86.9 25.3 88 25.6 89.1 25.6Z" fill="#051D39"/>
<path d="M107.6 9.60001V28.8H103.8V9.60001H107.6Z" fill="#051D39"/>
<path d="M112.4 0H116.2V28.8H112.4V0Z" fill="#051D39"/>
<path d="M135.1 9.60001V12.4C134.5 11.4 133.6 10.5 132.6 10C131.6 9.40001 130.4 9.10001 129.2 9.10001C127.5 9.10001 125.7 9.60001 124.2 10.5C122.7 11.4 121.5 12.7 120.6 14.2C118.8 17.3 118.8 21.2 120.6 24.3C121.5 25.8 122.7 27.1 124.2 28C125.7 28.9 127.4 29.4 129.2 29.4C130.5 29.4 131.6 29.1 132.6 28.5C133.6 27.9 134.5 27.1 135.1 26.1V29.5C135.1 30.5 134.8 31.4 134.2 32.2C133.6 33 132.8 33.7 131.9 34.1C130.9 34.6 129.9 34.8 128.8 34.8C128 34.8 127.1 34.6 126.4 34.3C125.6 33.9 124.9 33.4 124.4 32.8C124.2 32.6 124.1 32.4 123.9 32.2H119.6C120.1 33.4 120.8 34.6 121.7 35.5C122.6 36.5 123.7 37.3 125 37.8C126.2 38.4 127.5 38.6 128.8 38.6C130.5 38.6 132.2 38.2 133.8 37.4C135.3 36.7 136.6 35.5 137.5 34.1C138.4 32.7 138.9 31.1 138.9 29.5V9.60001H135.1V9.60001ZM134.1 22.4C133.7 23.3 133 24.1 132.1 24.7C131.2 25.3 130.2 25.6 129.2 25.6C128.1 25.6 127.1 25.3 126.2 24.7C125.3 24.1 124.5 23.3 124 22.4C123.5 21.4 123.2 20.3 123.2 19.2C123.2 18.1 123.5 17 124 16C124.5 15 125.3 14.2 126.2 13.7C127.1 13.1 128.1 12.8 129.2 12.8C130.2 12.8 131.3 13.1 132.1 13.7C133 14.3 133.7 15.1 134.1 16C135 18.1 135 20.4 134.1 22.4Z" fill="#051D39"/>
<path d="M142.4 9.60001H146.2V19.6C146.2 20.6 146.4 21.7 146.9 22.6C147.3 23.5 148 24.2 148.8 24.8C149.6 25.3 150.5 25.6 151.5 25.6C152.4 25.6 153.4 25.3 154.1 24.8C154.9 24.3 155.5 23.5 155.9 22.6C156.3 21.6 156.6 20.6 156.5 19.6V9.60001H160.3V28.8H156.5V26.1C155.8 27.1 155 27.9 154 28.5C153 29.1 151.9 29.4 150.8 29.3C149.1 29.3 147.6 28.9 146.3 28C145 27.1 144 25.9 143.3 24.5C142.6 23 142.2 21.4 142.2 19.6V9.60001H142.4Z" fill="#051D39"/>
<path d="M183.4 28.8H179.6V18.8C179.6 17.8 179.4 16.7 178.9 15.8C178.5 14.9 177.8 14.2 177 13.6C176.2 13.1 175.3 12.8 174.3 12.8C173.4 12.8 172.4 13.1 171.7 13.6C170.9 14.1 170.3 14.9 169.9 15.8C169.5 16.8 169.2 17.8 169.3 18.8V28.8H165.5V9.6H169.3V12.3C169.9 11.3 170.8 10.5 171.8 9.9C172.8 9.3 173.9 9 175 9.1C176.7 9.1 178.2 9.5 179.5 10.4C180.8 11.3 181.8 12.5 182.5 13.9C183.2 15.4 183.6 17.1 183.6 18.7V28.8H183.4Z" fill="#051D39"/>
<path d="M105.7 6.89999C106.805 6.89999 107.7 6.00456 107.7 4.89999C107.7 3.79542 106.805 2.89999 105.7 2.89999C104.595 2.89999 103.7 3.79542 103.7 4.89999C103.7 6.00456 104.595 6.89999 105.7 6.89999Z" fill="#051D39"/>
<path d="M18.5 21.1C17 21.1 15.9 19.9 15.9 18.5C15.9 17.1 17.1 15.9 18.5 15.9C19.9 15.9 21.1 17.1 21.1 18.5C21.1 19.9 19.9 21.1 18.5 21.1Z" fill="#F06B66"/>
<path d="M18.5 36.9C8.3 36.9 0 28.6 0 18.5C0 8.4 8.3 0 18.5 0C28.7 0 36.9 8.3 36.9 18.4C36.9 21.7 34.2 24.3 31 24.4C29.9 24.4 28.8 24.1 27.9 23.5H27.8V23.6C25 28.7 18.6 30.5 13.5 27.7C8.4 24.9 6.6 18.5 9.4 13.4C12.2 8.3 18.6 6.5 23.7 9.3C27.1 11.2 29.1 14.7 29.1 18.5C29.1 19.6 30 20.4 31 20.4C32 20.4 32.9 19.5 32.9 18.5C32.9 10.6 26.4 4.1 18.5 4.1C10.6 4.1 4 10.5 4 18.5C4 26.5 10.5 32.9 18.4 32.9C22.6 32.9 26.6 31 29.4 27.8L32.5 30.4C29 34.5 23.9 36.9 18.5 36.9ZM18.5 12C14.9 12 12 14.9 12 18.5C12 22.1 14.9 25 18.5 25C22.1 25 25 22.1 25 18.5C25 14.9 22.1 12 18.5 12Z" fill="#F06B66"/>
<path d="M49.1 36.8C49.6 36.8 50 36.9 50.4 37.1C50.8 37.3 51.1 37.6 51.3 38C51.8 38.8 51.8 39.7 51.3 40.5C51.1 40.9 50.8 41.2 50.4 41.4C50 41.6 49.6 41.7 49.1 41.7C48.8 41.7 48.5 41.6 48.2 41.5C47.9 41.3 47.7 41.1 47.6 40.9V41.6H46.6V34.4H47.6V37.5C47.8 37.2 48 37 48.2 36.9C48.5 36.9 48.8 36.8 49.1 36.8V36.8ZM49.1 40.9C49.4 40.9 49.6 40.8 49.9 40.7C50.1 40.6 50.3 40.4 50.5 40.1C50.8 39.6 50.8 39 50.5 38.5C50.4 38.3 50.2 38.1 49.9 37.9C49.7 37.8 49.4 37.7 49.1 37.7C48.8 37.7 48.6 37.8 48.4 37.9C48.2 38 48 38.2 47.9 38.5C47.7 39 47.7 39.6 47.9 40.1C48 40.3 48.2 40.5 48.4 40.7C48.6 40.9 48.8 40.9 49.1 40.9Z" fill="#051D39"/>
<path d="M56.5 36.9L53.8 44.1H52.8L53.7 41.7L52 36.9H53L54.2 40.4L55.4 36.9H56.5Z" fill="#051D39"/>
<path d="M59.4 41.7V34.6H61.8C62.6 34.6 63.1 34.7 63.5 34.9C64.3 35.3 64.7 36.1 64.7 37C64.7 38.3 64 39.5 61.9 39.5H61.1V41.7H59.4V41.7ZM61.9 37.9C62.6 37.9 63 37.7 63 37C63 36.4 62.6 36.2 61.8 36.2H61.1V37.9H61.9V37.9Z" fill="#051D39"/>
<path d="M70.2 41.7L69.9 40.7H67.4L67 41.7H65.1L68 34.6H69.4L72.2 41.7H70.2ZM68.7 36.8L67.9 39.2H69.4L68.7 36.8Z" fill="#051D39"/>
<path d="M74.3 41.7V36.2H72.4V34.6H78V36.2H76.1V41.7H74.3Z" fill="#051D39"/>
<path d="M83.8 41.7V38.9H81.5V41.7H79.6V34.6H81.5V37.3H83.8V34.6H85.6V41.7H83.8Z" fill="#051D39"/>
<path d="M98.2 41.7V34.6H100V41.7H98.2Z" fill="#051D39"/>
<path d="M109.5 41.7V34.6H114.2V36.2H111.2V37.3H113.4V38.9H111.2V40.1H114.2V41.7H109.5Z" fill="#051D39"/>
<path d="M94.8 34.6L93.8 38.6L92.7 34.6H91.1L90 38.6L89 34.6H87.3L89.2 41.7H90.8L91.9 37.7L93 41.7H94.6L96.4 34.6H94.8Z" fill="#051D39"/>
<path d="M105.7 41.8L104.5 39.5H104V41.8H102.3V34.7H104.6C105.3 34.7 105.9 34.8 106.3 35C107.1 35.3 107.6 36.2 107.6 37.2C107.6 38.3 106.9 39.2 105.8 39.4L106 39L107.7 41.8H105.7ZM104.7 38.2C105.4 38.2 105.9 37.9 105.9 37.2C105.9 36.6 105.4 36.2 104.8 36.2H104V38.2H104.7V38.2Z" fill="#051D39"/>
</svg>
